<?xml version="1.0" encoding="UTF-8" standalone="no"?><!DOCTYPE svg PUBLIC "-//W3C//DTD SVG 1.1//EN" "http://www.w3.org/Graphics/SVG/1.1/DTD/svg11.dtd"><svg width="100%" height="100%" viewBox="0 0 3505 2246" version="1.1" xmlns="http://www.w3.org/2000/svg" xmlns:xlink="http://www.w3.org/1999/xlink" xml:space="preserve" xmlns:serif="http://www.serif.com/" style="fill-rule:evenodd;clip-rule:evenodd;stroke-linejoin:round;stroke-miterlimit:2;fill:white;"><rect id="Artboard1" x="0" y="-0" width="3504.17" height="2245.83" style="fill:none;"/><path d="M476.605,1496.93c-94.855,-60.916 -174.999,-142.623 -234.737,-239.484c-56.392,-91.435 -93.656,-196.198 -105.372,-310.167c-10.98,-96.605 -1.169,-190.543 23.524,-278.736c25.269,-90.252 68.084,-173.491 123.542,-247.268c55.248,-73.498 123.514,-136.961 202.619,-186.557c76.969,-48.256 163.171,-84.872 258.069,-102.064c139.208,-27.36 276.523,-12.966 400.016,34.296c130.607,49.986 245.345,135.371 330.423,247.476c-75.642,-123.312 -184.799,-222.045 -313.592,-285.897c-128.452,-63.682 -275.751,-91.203 -428.754,-75.303c-130.034,15.757 -249.523,61.266 -350.343,131.134c-69.818,48.385 -130.539,108.548 -179.978,176.635c-49.332,67.94 -87.461,144.098 -112.244,225.154c-35.646,116.586 -43.988,243.166 -20.26,371.171c23.797,120.377 72.893,229.042 142.673,320.522c70.674,92.653 161.268,167.261 264.414,219.088Z"/><g id="g633"><path d="M1457.65,2190.13c-7.671,-12.031 -264.279,-420.375 -266.074,-431.371c-1.448,-8.868 -14.896,-64.349 -26.159,-105.599c-11.264,-41.25 -32.706,-105.471 -31.82,-106.396c0.887,-0.926 18.323,30.545 23.847,42.928c5.524,12.384 27.385,57.203 48.579,99.599c21.195,42.396 44.355,88.789 51.469,103.096c7.113,14.307 13.92,26.026 15.126,26.042c1.206,0.015 -0.623,-14.035 -1.27,-23.775l-4.987,-34.47l13.049,30.024c3.406,6.875 12.557,34.708 21.266,55.333c18.934,44.836 69.306,134.941 70.816,126.674c0.588,-3.213 -5.347,-37.716 -13.186,-76.674c-7.839,-38.958 -14.619,-80.375 -14.135,-80.863c1.07,-1.081 45.454,113.577 57.112,145.446c4.611,12.605 23.577,73.44 42.146,135.191c18.57,61.751 39.2,128.119 37.994,128.119c-1.211,-0 -23.773,-33.304 -23.773,-33.304Zm132.474,-72.848c-7.263,-14.249 -22.746,-43.72 -34.406,-65.491c-72.209,-134.828 -79.259,-144.905 -129.242,-303.559c-18.771,-59.584 -41.266,-134.633 -43.47,-138.84c-2.204,-4.206 93.813,167.081 123.991,227.816c19.129,38.499 42.149,105.138 65.49,189.583c7.285,26.354 17.678,62.852 23.097,81.106c5.418,18.253 9.378,33.662 8.799,34.241c-0.578,0.578 -6.995,-10.606 -14.259,-24.856Zm-37.424,-293.615c-30.852,-64.627 -48.085,-98.254 -71.577,-169.745c-19.243,-58.561 -70.491,-196.104 -80.454,-220.976c-6.46,-16.128 107.41,135.05 108.523,131.71c0.731,-2.195 -2.696,-17.706 -7.618,-34.469c-29.056,-98.971 -69.805,-193.893 -112.356,-261.729c-27.354,-43.607 -74.548,-108.334 -78.99,-108.334c-1.804,0 4.921,39.844 14.944,88.542c10.024,48.698 18.506,101.509 17.918,104.321c-0.589,2.812 -13.864,-25.667 -28.57,-50.25c-14.707,-24.583 -45.863,-75.001 -70.554,-112.464c-41.306,-62.67 -65.558,-108.186 -47.076,-85.934c18.678,22.489 84.779,93.847 86.55,92.076c1.032,-1.032 -3.765,-17.332 -10.66,-36.224c-13.839,-37.921 -45.275,-98.879 -74.164,-143.817c-12.993,-20.209 -26.389,-37.982 -19.554,-32.087c80.495,69.432 196.219,181.441 223.042,214.753c20.302,25.214 20.798,17.547 2.052,-31.723c-29.509,-77.559 -95.277,-169.791 -183.275,-257.021l-48.165,-47.745l27.974,89.106l-11.728,-8.351c-17.58,-12.518 -42.283,-42.033 -56.18,-67.123c-10.992,-19.844 -17.686,-28.506 -17.654,-60.011c0.047,-39.519 9.048,-46.935 35.098,-76.292l16.032,-18.069l0.111,32.698c0.063,18.793 2.556,38.015 5.866,45.199l5.76,12.5l3.485,-21.954c1.917,-12.075 5.275,-33.346 8.394,-40.75c6.01,-14.268 43.31,-60.786 46.185,-57.911c0.933,0.932 -6.877,18.362 -11.768,29.419c-12.182,27.54 -3.473,63.798 12.184,90.514c24.484,41.779 90.812,84.873 173.233,112.551l30.947,10.393l-15.928,2.988c-8.761,1.643 -32.531,1.912 -52.822,0.598c-20.291,-1.315 -36.893,-1.778 -36.893,-1.031c-0,2.655 177.53,134.871 203.77,151.758c29.932,19.263 29.586,19.43 -22.521,10.869c-20.625,-3.389 -38.954,-6.169 -40.731,-6.178c-1.777,-0.008 7.246,12.335 20.051,27.429c12.805,15.095 31.263,39.938 41.019,55.208c24.642,38.572 48.531,79.847 46.213,79.847c-1.066,0 -30.472,-27.384 -65.349,-60.853c-34.876,-33.47 -63.985,-59.133 -64.686,-57.03c-0.701,2.103 9.401,23.393 22.448,47.312c32.849,60.22 76.472,152.483 94.439,199.738c21.866,57.512 44.378,122.357 42.968,123.767c-0.67,0.671 -7.49,-7.684 -15.155,-18.566c-7.665,-10.881 -27.066,-35.722 -43.114,-55.201c-16.047,-19.479 -29.779,-36.198 -30.515,-37.153c-0.735,-0.954 -2.261,-0.812 -3.39,0.317c-1.129,1.129 4.555,21.597 12.629,45.486c19.737,58.391 35.171,112.064 58.021,201.767c10.507,41.25 22.412,87.893 23.662,92.477c1.99,7.298 -22.72,-33.688 -73.761,-110.64c-15.661,-23.612 -21.868,-26.432 -14.027,-6.373c2.588,6.62 8.135,27.974 12.327,47.453c27.737,128.882 44.831,215.212 42.729,217.314c-0.929,0.929 -15.387,-32.885 -29.335,-62.104l-0.004,-0.002Zm-671.089,-36.748c-2.35,4.883 -106.698,-77.413 -135.703,-109.745c-40.249,-44.866 -97.236,-124.008 -121.484,-164.966l-12.333,-20.834l-1.187,40.193c-0.725,24.496 1.285,52.05 5.143,70.552c3.481,16.698 13.404,50.713 12.74,51.378c-2.526,2.525 -44.087,-72.599 -61.893,-108.258c-92.101,-184.448 -111.047,-416.045 -48.974,-598.656c6.816,-20.052 11.752,-36.459 10.968,-36.459c-0.784,0 -10.793,12.657 -22.243,28.125c-33.094,44.711 -76.335,115.22 -107.464,175.23c-26.234,50.573 -28.88,54.229 -30.161,41.666c-3.228,-31.668 16.085,-141.467 35.403,-201.271c3.702,-11.458 15.847,-41.157 26.991,-65.998c11.143,-24.841 20.261,-45.927 20.261,-46.858c-0,-1.643 -15.877,4.207 -61.734,22.747c-24.945,10.085 -25.209,11.231 7.633,-33.163c25.99,-35.132 52.611,-84.749 79.169,-147.561c39.829,-94.195 71.077,-146.712 116.133,-195.174c10.568,-11.368 16.403,-19.572 12.965,-18.231c-3.437,1.34 -19.121,6.454 -34.853,11.364c-15.731,4.911 -45.533,15.39 -66.226,23.286c-20.693,7.897 -38.328,13.653 -39.19,12.791c-3.237,-3.237 60.306,-59.998 92.352,-82.494c78.46,-55.078 154.275,-77.746 228.865,-68.427c25.71,3.213 30.617,9.189 9.677,11.788c-7.448,0.924 -0.417,2.088 15.625,2.587c35.028,1.089 65.145,6.428 56.25,9.971c-3.437,1.369 -21.805,5.548 -40.817,9.286c-43.835,8.619 -85.287,22.696 -118.538,40.256c-35.103,18.538 -92.914,76.248 -110.87,110.678l-13.568,26.015l84.928,-32.949c46.291,-16.027 86.858,-29.902 87.355,-29.902c0.496,0 -9.117,21.916 -17.638,43.113c-23.566,58.623 -24.393,55.878 -12.7,52.737c54.573,-14.663 150.086,-40.199 156.591,-38.322c9.291,2.681 -168.384,80.264 -225.911,102.77c-8.066,3.156 -8.32,1.022 6.438,-40.266c8.734,-24.434 21.255,-48.109 21.305,-49.818c0.126,-4.435 -37.951,10.621 -61.345,24.254c-29.937,17.445 -64.794,55.387 -81.426,88.632c-13.704,27.393 -35.153,103.178 -30.514,107.817c1.148,1.148 10.158,-4.47 20.023,-12.485c19.614,-15.933 88.353,-61.36 92.85,-61.36c1.54,-0 -8.243,12.656 -21.741,28.125c-24.644,28.242 -63.331,77.12 -69.854,88.255c-1.921,3.28 6.671,-0.063 19.094,-7.431c33.035,-19.59 79.437,-43.073 81.343,-41.167c0.909,0.909 -8.481,21.185 -20.864,45.06c-23.79,45.864 -43.184,101.274 -54.255,155.004c-8.565,41.568 -13.278,98.254 -7.697,92.57c2.25,-2.291 19.268,-29.479 37.817,-60.416c29.359,-48.967 75.713,-113.85 79.041,-110.637c0.622,0.6 -4.346,12.145 -11.039,25.656c-13.044,26.331 -31.937,84.107 -28.596,87.448c1.113,1.113 11.17,-9.292 22.348,-23.123c11.178,-13.83 21.598,-25.153 23.157,-25.162c1.557,-0.008 -1.931,11.703 -7.752,26.026c-10.649,26.199 -32.534,114.978 -29.172,118.34c0.992,0.992 11.443,-10.463 23.226,-25.456c11.782,-14.992 22.173,-27.259 23.091,-27.259c0.918,0 -7.23,15.469 -18.106,34.375c-10.877,18.906 -30.409,55.622 -43.406,81.59l-23.631,47.215l0.001,-28.465c0,-15.656 3.712,-50.965 8.247,-78.465c4.535,-27.5 8.285,-52.634 8.332,-55.854c0.167,-11.357 -17.179,9.385 -31.333,37.465c-22.434,44.509 -28.303,73.174 -28.503,139.222c-0.208,68.428 5.314,104.091 25.801,166.667l15.006,45.833l2.711,-25c2.725,-25.116 14.977,-78.779 20.227,-88.59c1.548,-2.892 7.89,13.046 14.095,35.417c10.514,37.904 51.861,128.193 68.797,150.23c7.14,9.289 7.312,8.361 6.185,-33.334l-1.159,-42.889l12.469,35.416c15.416,43.788 60.512,135.663 91.486,186.477c12.791,20.985 74.434,97.219 71.741,102.818Zm113.071,-61.616c-20.079,-23.352 -51.184,-99.873 -41.468,-85.331c5.042,7.543 59.347,88.488 73.526,140.595c0.394,1.446 -32.058,-55.264 -32.058,-55.264Zm209.885,-302.677c-124.282,-95.57 -214.294,-170.835 -205.564,-170.835c7.918,0 48.259,21.299 104.249,58.745c34.118,22.818 66.817,45.083 68.009,43.891c1.192,-1.192 -2.778,-19.41 -8.823,-40.483c-6.044,-21.073 -10.425,-38.88 -9.735,-39.57c0.69,-0.69 6.685,9.415 13.322,22.456c11.199,22.005 32.761,62.002 70.624,131.003c8.489,15.468 14.873,28.111 14.188,28.095l-46.27,-33.302Zm-286.964,-21.94c-55.073,-75.62 -76.007,-98.638 -78.598,-119.336c-1.42,-11.34 -2.187,-63.447 -3.398,-117.655l-3.103,-106.942c-0,0 75.127,-105.369 75.826,-104.671c0.697,0.699 -3.057,41.756 -7.415,72.615c-9.725,68.869 -25.367,239.857 -22.305,242.919c3.44,3.44 2.876,-0.185 16.174,-40.265l13.204,-46.643l3.691,56.5c3.134,49.045 16.767,150.04 23.354,173.006c2.199,7.668 11.053,29.745 10.363,30.435c-0.69,0.69 -17.388,-25.674 -27.794,-39.963l0.001,0Zm108.463,-193.97l-41.717,-17.961l-2.938,-29.512c-2.454,-20.841 -8.684,-70.827 -10.118,-86.869c-3.145,-35.157 0.277,-24.118 38.679,46.084c14.416,26.354 33.698,60.635 42.847,76.179c9.15,15.545 15.916,28.834 15.037,29.533c-0.878,0.697 -19.685,-7.156 -41.79,-17.454Zm38.109,-160.068c-49.818,-83.957 -89.47,-152.125 -81.126,-143.226c2.148,2.292 24.408,31.248 38.29,48.516c40.125,49.91 38.588,50.018 39.162,-2.762c0.427,-39.167 2.854,-97.071 4.3,-73.79c0.549,8.865 32.589,158.493 45.741,214.947c4.671,20.052 8.631,49.604 7.867,51.703c-0.764,2.099 -25.589,-47.111 -54.234,-95.388Zm-306.652,-24.206c1.248,-5.629 7.058,-36.484 12.908,-68.568c18.527,-101.597 29.633,-143.34 45.593,-171.367c6.667,-11.708 6.757,-11.336 4.206,17.201c-1.435,16.041 -5.224,44.166 -8.422,62.5c-9.481,54.361 -10.37,54.168 36.742,7.974c54.817,-53.751 120.852,-111.172 157.291,-136.773c5.012,-3.521 4.931,-2.754 -0.411,3.871c-13.522,16.769 -108.708,126.74 -160.073,184.936c-29.131,33.005 -61.322,71.36 -71.535,85.234c-12.602,17.118 -17.84,21.937 -16.299,14.992l-0,-0Zm165.633,-396.893l75.507,-38.84l16.325,6.737l-119.08,137.251l27.248,-105.148Zm687.713,58.311c-12.61,-23.694 -43.366,-55.396 -74.814,-77.113c-58.844,-40.637 -128.018,-58.818 -225.148,-65.371c-34.562,-2.332 -190.476,10.553 -190.476,10.553l32.518,-44.893c-0,-0 71.382,-2.103 91.434,-3.568c20.052,-1.464 40.625,-4.16 40.625,-5.991c-0,-4.883 -30.378,-12.448 -69.93,-15.293c-18.981,-1.366 -46.481,0.1 -45.833,-1.836c0.649,-1.935 42.846,-49.692 42.846,-49.692c0,-0 149.972,4.548 183.334,14.442c119.787,35.524 190.861,102.897 218.751,216.408c4.973,20.239 8.357,41.649 7.52,42.486c-0.836,0.836 -5.709,-10.514 -10.827,-20.132Zm-149.276,-84.525c-75.974,-33.688 -214.851,-27.006 -360.87,-15.74l-32.79,49.552c84.022,-18.014 200.373,-31.408 393.66,-33.812Zm-475.057,-67.801c-18.753,-11.772 -26.528,-24.942 -26.528,-44.934c-0,-32.683 31.781,-55.834 64.315,-46.851c38.975,10.761 48.876,64.456 16.324,88.524c-15.744,11.641 -38.57,13.016 -54.111,3.261Zm-247.612,-59.135c-12.472,1.035 82.334,-60.41 95.87,-59.275c4.431,0.372 0.124,6.671 -3.51,11.05c-3.805,4.585 -2.155,6.233 8.344,8.333c7.198,1.44 18.368,2.617 24.821,2.617c6.453,0 20.511,2.637 21.927,4.929c1.515,2.451 -10.721,3.446 -18.831,3.504c-7.583,0.055 -20.35,1.756 -28.371,3.78c-14.66,3.7 -84.197,23.73 -100.25,25.062Zm372.037,-74.665c-22.736,-25.392 -56.99,-43.554 -108.229,-57.385c-37.947,-10.243 -46.579,-10.972 -130.224,-10.997c-86.35,-0.025 -150.327,6.516 -182.185,18.628c-18.536,7.047 -9.416,-4.415 12.246,-15.392c85.932,-43.545 191.841,-62.271 295.098,-52.176c79.452,7.768 138.152,28.574 197.372,69.958l21.991,15.367l-41.137,27.683l-15.142,-12.481c-18.376,-15.147 -22.529,-15.642 -19.176,-2.286c2.613,10.414 -4.948,44.719 -10.015,43.952c-1.542,-0.233 -10.811,-13.939 -20.599,-24.871Z"/></g><g><path d="M1666.67,1250.59l94.927,0l39.869,-151.883l49.995,0c7.594,0 14.555,0 22.149,-0.632l5.063,57.588c8.227,94.927 25.947,94.927 108.2,94.927l-15.808,-179.072c40.47,-22.131 71.455,-60.07 86.631,-118.286c31.003,-115.836 -36.676,-145.555 -129.661,-145.555l-151.25,-0c-25.314,94.848 -12.657,94.848 69.613,94.848l56.323,-0c53.792,-0 71.505,7.613 60.121,50.707c-9.493,36.705 -32.908,50.627 -86.7,50.627l-49.995,0l18.352,-69.613l-94.926,0l-82.903,316.344Z" style="fill:white;"/><path d="M2236.82,1250.59l94.91,0l94.91,-360.712l-0.633,0l22.143,-82.201l-94.274,-0c-130.976,-0 -222.722,61.967 -264.482,221.417l-58.211,221.496l94.91,0l58.211,-221.496c24.044,-91.13 52.516,-126.569 144.262,-126.569l-27.84,104.419c-68.335,0.633 -80.989,6.329 -103.768,94.927l79.092,0l-39.23,148.719Z" style="fill:white;"/><path d="M2412.16,1168.38l0.632,0l-22.145,82.201l94.277,0c130.975,0 222.721,-61.967 264.481,-221.417l58.208,-221.496l-94.907,-0l-58.211,221.496c-24.043,91.13 -52.516,126.569 -144.262,126.569l91.746,-348.065l-94.91,-0l-94.909,360.712Z" style="fill:white;"/><path d="M2745.67,1250.59l253.085,0l25.308,-94.848l-158.81,0l67.067,-253.217l157.545,-0l25.309,-94.848l-253.085,-0l-116.419,442.913Z" style="fill:white;"/><path d="M3049.44,1250.59l94.909,0l62.008,-235.375l48.087,180.96c13.92,53.15 22.779,54.415 105.034,54.415l116.421,-442.913l-94.909,-0l-69.6,265.116l-63.273,-265.116l-82.255,-0l-116.422,442.913Z" style="fill:white;"/></g><text x="1695.98px" y="1598.47px" style="font-family:'TechnoRace-Italic', 'Techno Race';font-style:italic;font-size:414.522px;fill:white;">dot</text><path d="M2974.51,1091.67c28.721,-0 64.277,-24.509 74.326,-62.539c10.056,-38.029 -12.745,-62.538 -41.432,-62.538c-28.966,0 -64.523,24.509 -74.572,62.538c-10.056,38.03 12.746,62.539 41.678,62.539Z" style="fill:white;"/></svg>